<?xml version="1.0" standalone="no"?><svg xmlns="http://www.w3.org/2000/svg" viewBox="0 0 1440 320"><path fill="#ffffff" fill-opacity="1" d="M0,128L26.7,122.7C53.3,117,107,107,160,122.7C213.3,139,267,181,320,213.3C373.3,245,427,267,480,256C533.3,245,587,203,640,176C693.3,149,747,139,800,133.3C853.3,128,907,128,960,133.3C1013.3,139,1067,149,1120,154.7C1173.3,160,1227,160,1280,154.7C1333.3,149,1387,139,1413,133.3L1440,128L1440,320L1413.3,320C1386.7,320,1333,320,1280,320C1226.7,320,1173,320,1120,320C1066.7,320,1013,320,960,320C906.7,320,853,320,800,320C746.7,320,693,320,640,320C586.7,320,533,320,480,320C426.7,320,373,320,320,320C266.7,320,213,320,160,320C106.7,320,53,320,27,320L0,320Z"></path></svg>